<svg preserveAspectRatio="none" width="100%" height="100%" overflow="visible" style="display: block;" viewBox="0 0 43 43" fill="none" xmlns="http://www.w3.org/2000/svg">
<g id="698c0664e6b84063f1f1b881_5ba1f94417c4140970f6191321ec1d15_AI-Icon.svg">
<path id="Vector" d="M33.1959 19.1029V25.1492H39.229V19.1029H33.1959ZM37.2224 23.1294H35.2025V21.1228H37.229L37.2224 23.1294Z" fill="var(--fill-0, #84DDDB)"/>
<path id="Vector_2" d="M35.2024 31.1826H29.1758V37.2157H35.209L35.2024 31.1826ZM33.1958 35.1958H31.1892V33.1892H33.1958V35.1958Z" fill="var(--fill-0, #84DDDB)"/>
<path id="Vector_3" d="M37.2286 15.0894V5.02985H27.169V15.0894H37.2286ZM29.1756 7.03649H35.2087V13.0696H29.1756V7.03649Z" fill="var(--fill-0, #84DDDB)"/>
<path id="Vector_4" d="M25.143 1.00346H15.0966V11.0631H25.143V1.00346ZM23.1363 9.04325H17.1032V3.01011H23.1363V9.04325Z" fill="var(--fill-0, #84DDDB)"/>
<path id="Vector_5" d="M17.1026 35.1956H23.1358V41.2419H17.1026V35.1956Z" fill="var(--fill-0, #84DDDB)"/>
<path id="Vector_6" d="M5.03651 31.1822H11.0697V37.2155H5.03651V31.1822Z" fill="var(--fill-0, #84DDDB)"/>
<path id="Vector_7" d="M7.04355 9.04342H9.0502V11.0633H7.04355V9.04342Z" fill="var(--fill-0, #84DDDB)"/>
<path id="Vector_8" d="M3.01678 21.1225H5.03663V23.1293H3.01678V21.1225Z" fill="var(--fill-0, #84DDDB)"/>
</g>
</svg>
