<svg preserveAspectRatio="none" width="100%" height="100%" overflow="visible" style="display: block;" viewBox="0 0 41 37.4348" fill="none" xmlns="http://www.w3.org/2000/svg">
<g id="69b8c750f09559d23142b03e_Workflow%20Icon.svg">
<path id="Vector" d="M4.26746 9.21014H7.94069V18.4203H4.26746V9.21014ZM11.614 9.21014H15.2872V33.1565H11.614V9.21014ZM18.9605 3.68406H22.6337V33.1565H18.9605V3.68406ZM26.307 3.68406H29.9802V27.6304H26.307V3.68406ZM7.94069 5.52609H11.614V9.21014H7.94069V5.52609ZM15.2872 33.1565H18.9605V36.8406H15.2872V33.1565ZM22.6337 0H26.307V3.68406H22.6337V0ZM29.9802 27.6304H33.6535V31.3145H29.9802V27.6304ZM33.6535 18.4203H37.3268V27.6304H33.6535V18.4203ZM37.3268 14.7362H41V18.4203H37.3268V14.7362ZM0.594203 18.4203H4.26746V22.1043H0.594203V18.4203Z" fill="var(--fill-0, #84DDDB)"/>
<path id="Vector_2" d="M26.3096 0.00108802H22.631V3.70825H26.3096V0.00108802Z" fill="var(--fill-0, #84DDDB)"/>
<path id="Vector_3" d="M18.9714 33.1334H15.2929V36.8406H18.9714V33.1334Z" fill="var(--fill-0, #84DDDB)"/>
<path id="Vector_4" d="M11.6121 5.50095H7.93356V9.20811H11.6121V5.50095Z" fill="var(--fill-0, #84DDDB)"/>
<path id="Vector_5" d="M33.653 27.6222H29.9744V31.3294H33.653V27.6222Z" fill="var(--fill-0, #84DDDB)"/>
</g>
</svg>
