<svg preserveAspectRatio="none" width="100%" height="100%" overflow="visible" style="display: block;" viewBox="0 0 43 43" fill="none" xmlns="http://www.w3.org/2000/svg">
<g id="69b8c7500670dfcafd242dee_Data%20Icon.svg">
<path id="Vector" d="M5.375 3.58333H8.95833V35.8333H5.375V3.58333ZM34.0417 3.58333H37.625V35.8333H34.0417V3.58333ZM8.95833 7.16667H12.5417V10.75H8.95833V7.16667ZM16.125 7.16667H19.7083V10.75H16.125V7.16667ZM8.95833 35.8333H34.0417V39.4167H8.95833V35.8333ZM23.2917 7.16667H26.875V10.75H23.2917V7.16667ZM12.5417 3.58333H16.125V7.16667H12.5417V3.58333ZM19.7083 3.58333H23.2917V7.16667H19.7083V3.58333ZM26.875 3.58333H30.4583V7.16667H26.875V3.58333ZM30.4583 7.16667H34.0417V10.75H30.4583V7.16667Z" fill="var(--fill-0, #84DDDB)"/>
<path id="Vector_2" d="M30.4583 16.2879H12.5417V17.9167H30.4583V16.2879Z" fill="var(--fill-0, #84DDDB)"/>
<path id="Vector_3" d="M30.4583 22.1515H12.5417V23.7803H30.4583V22.1515Z" fill="var(--fill-0, #84DDDB)"/>
<path id="Vector_4" d="M19.7083 28.0152H12.5417V29.6439H19.7083V28.0152Z" fill="var(--fill-0, #84DDDB)"/>
</g>
</svg>
