<svg preserveAspectRatio="none" width="100%" height="100%" overflow="visible" style="display: block;" viewBox="0 0 39 39" fill="none" xmlns="http://www.w3.org/2000/svg">
<g id="69a371df06c546c58f520391_Graph%20Tab%20Icon%2002.svg">
<path id="Vector" d="M7.0253 24.8702C6.48678 24.8702 6.0337 24.6882 5.66598 24.324C5.29824 23.9597 5.11442 23.5085 5.11442 22.9703C5.11442 22.4318 5.29643 21.9787 5.66046 21.6109C6.02478 21.2432 6.47605 21.0594 7.01427 21.0594C7.55278 21.0594 8.00586 21.2414 8.3736 21.6054C8.74134 21.9697 8.92516 22.421 8.92516 22.9592C8.92516 23.4978 8.74315 23.9508 8.37912 24.3185C8.01479 24.6863 7.56352 24.8702 7.0253 24.8702ZM7.0253 32.993C6.48678 32.993 6.0337 32.811 5.66598 32.447C5.29824 32.0827 5.11442 31.6313 5.11442 31.0931C5.11442 30.5546 5.29643 30.1015 5.66046 29.7337C6.02478 29.3661 6.47605 29.1823 7.01427 29.1823C7.55278 29.1823 8.00586 29.3643 8.3736 29.7283C8.74134 30.0927 8.92516 30.5439 8.92516 31.0821C8.92516 31.6206 8.74315 32.0737 8.37912 32.4415C8.01479 32.8093 7.56352 32.993 7.0253 32.993ZM7.0253 17.0481C6.48678 17.0481 6.0337 16.8661 5.66598 16.5021C5.29824 16.1376 5.11442 15.6864 5.11442 15.1482C5.11442 14.6097 5.29643 14.1566 5.66046 13.7889C6.02478 13.4211 6.47605 13.2373 7.01427 13.2373C7.55278 13.2373 8.00586 13.4193 8.3736 13.7834C8.74134 14.1477 8.92516 14.599 8.92516 15.1372C8.92516 15.6757 8.74315 16.1288 8.37912 16.4966C8.01479 16.8642 7.56352 17.0481 7.0253 17.0481ZM1.05297 16.1957C0.752121 16.1957 0.501413 16.0953 0.300847 15.8948C0.100283 15.6942 0 15.4436 0 15.1427C0 14.8418 0.100283 14.5912 0.300847 14.3906C0.501413 14.19 0.752121 14.0897 1.05297 14.0897C1.35382 14.0897 1.60452 14.19 1.80509 14.3906C2.00565 14.5912 2.10594 14.8418 2.10594 15.1427C2.10594 15.4436 2.00565 15.6942 1.80509 15.8948C1.60452 16.0953 1.35382 16.1957 1.05297 16.1957ZM7.0253 8.92516C6.48678 8.92516 6.0337 8.74315 5.66598 8.37912C5.29824 8.01479 5.11442 7.56352 5.11442 7.0253C5.11442 6.48678 5.29643 6.0337 5.66046 5.66598C6.02478 5.29824 6.47605 5.11442 7.01427 5.11442C7.55278 5.11442 8.00586 5.29643 8.3736 5.66046C8.74134 6.02478 8.92516 6.47605 8.92516 7.01427C8.92516 7.55278 8.74315 8.00586 8.37912 8.3736C8.01479 8.74134 7.56352 8.92516 7.0253 8.92516ZM1.05297 24.0176C0.752121 24.0176 0.501413 23.9174 0.300847 23.7169C0.100283 23.5163 0 23.2655 0 22.9648C0 22.6639 0.100283 22.4132 0.300847 22.2127C0.501413 22.012 0.752121 21.9118 1.05297 21.9118C1.35382 21.9118 1.60452 22.012 1.80509 22.2127C2.00565 22.4132 2.10594 22.6639 2.10594 22.9648C2.10594 23.2655 2.00565 23.5163 1.80509 23.7169C1.60452 23.9174 1.35382 24.0176 1.05297 24.0176ZM15.1427 38.1075C14.8418 38.1075 14.5912 38.0071 14.3906 37.8066C14.19 37.606 14.0897 37.3554 14.0897 37.0545C14.0897 36.7536 14.19 36.5028 14.3906 36.3024C14.5912 36.1017 14.8418 36.0015 15.1427 36.0015C15.4436 36.0015 15.6942 36.1017 15.8948 36.3024C16.0953 36.5028 16.1957 36.7536 16.1957 37.0545C16.1957 37.3554 16.0953 37.606 15.8948 37.8066C15.6942 38.0071 15.4436 38.1075 15.1427 38.1075ZM15.1427 2.10594C14.8418 2.10594 14.5912 2.00565 14.3906 1.80509C14.19 1.60452 14.0897 1.35382 14.0897 1.05297C14.0897 0.752121 14.19 0.501413 14.3906 0.300847C14.5912 0.100283 14.8418 0 15.1427 0C15.4436 0 15.6942 0.100283 15.8948 0.300847C16.0953 0.501413 16.1957 0.752121 16.1957 1.05297C16.1957 1.35382 16.0953 1.60452 15.8948 1.80509C15.6942 2.00565 15.4436 2.10594 15.1427 2.10594ZM15.1482 8.92516C14.6097 8.92516 14.1566 8.74315 13.7889 8.37912C13.4211 8.01479 13.2373 7.56352 13.2373 7.0253C13.2373 6.48678 13.4193 6.0337 13.7834 5.66598C14.1477 5.29824 14.599 5.11442 15.1372 5.11442C15.6757 5.11442 16.1288 5.29643 16.4966 5.66046C16.8642 6.02478 17.0481 6.47605 17.0481 7.01427C17.0481 7.55278 16.8661 8.00586 16.5021 8.3736C16.1376 8.74134 15.6864 8.92516 15.1482 8.92516ZM15.1427 25.6724C14.3906 25.6724 13.7513 25.4091 13.2248 24.8826C12.6983 24.3562 12.435 23.7169 12.435 22.9648C12.435 22.2127 12.6983 21.5734 13.2248 21.0469C13.7513 20.5204 14.3906 20.257 15.1427 20.257C15.8948 20.257 16.5341 20.5204 17.0606 21.0469C17.5871 21.5734 17.8503 22.2127 17.8503 22.9648C17.8503 23.7169 17.5871 24.3562 17.0606 24.8826C16.5341 25.4091 15.8948 25.6724 15.1427 25.6724ZM15.1427 17.8503C14.3906 17.8503 13.7513 17.5871 13.2248 17.0606C12.6983 16.5341 12.435 15.8948 12.435 15.1427C12.435 14.3906 12.6983 13.7513 13.2248 13.2248C13.7513 12.6983 14.3906 12.435 15.1427 12.435C15.8948 12.435 16.5341 12.6983 17.0606 13.2248C17.5871 13.7513 17.8503 14.3906 17.8503 15.1427C17.8503 15.8948 17.5871 16.5341 17.0606 17.0606C16.5341 17.5871 15.8948 17.8503 15.1427 17.8503ZM15.1482 32.993C14.6097 32.993 14.1566 32.811 13.7889 32.447C13.4211 32.0827 13.2373 31.6313 13.2373 31.0931C13.2373 30.5546 13.4193 30.1015 13.7834 29.7337C14.1477 29.3661 14.599 29.1823 15.1372 29.1823C15.6757 29.1823 16.1288 29.3643 16.4966 29.7283C16.8642 30.0927 17.0481 30.5439 17.0481 31.0821C17.0481 31.6206 16.8661 32.0737 16.5021 32.4415C16.1376 32.8093 15.6864 32.993 15.1482 32.993Z" fill="var(--fill-0, #84DDDB)"/>
<path id="Vector_2" d="M30.8702 13.2374C31.4087 13.2374 31.8618 13.4194 32.2296 13.7834C32.5972 14.1477 32.7811 14.599 32.7811 15.1372C32.7811 15.6757 32.5991 16.1288 32.2351 16.4966C31.8707 16.8643 31.4194 17.0481 30.8812 17.0481C30.3427 17.0481 29.8896 16.8661 29.5218 16.5021C29.1542 16.1378 28.9704 15.6864 28.9704 15.1482C28.9704 14.6097 29.1524 14.1566 29.5164 13.7889C29.8806 13.4212 30.332 13.2374 30.8702 13.2374ZM30.8702 5.11445C31.4087 5.11445 31.8618 5.29646 32.2296 5.66049C32.5972 6.02481 32.7811 6.47608 32.7811 7.01431C32.7811 7.55283 32.5991 8.00591 32.2351 8.37363C31.8707 8.74137 31.4194 8.92519 30.8812 8.92519C30.3427 8.92519 29.8896 8.74318 29.5218 8.37915C29.1542 8.01482 28.9704 7.56356 28.9704 7.02533C28.9704 6.48681 29.1524 6.03373 29.5164 5.66601C29.8806 5.29827 30.332 5.11445 30.8702 5.11445ZM30.8702 21.0594C31.4087 21.0594 31.8618 21.2414 32.2296 21.6054C32.5972 21.9697 32.7811 22.4211 32.7811 22.9593C32.7811 23.4978 32.5991 23.9509 32.2351 24.3185C31.8707 24.6863 31.4194 24.8702 30.8812 24.8702C30.3427 24.8702 29.8896 24.6882 29.5218 24.3242C29.1542 23.9597 28.9704 23.5085 28.9704 22.9703C28.9704 22.4318 29.1524 21.9787 29.5164 21.6109C29.8806 21.2432 30.332 21.0594 30.8702 21.0594ZM36.8426 21.9118C37.1435 21.9118 37.3941 22.012 37.5947 22.2127C37.7952 22.4132 37.8956 22.6639 37.8956 22.9648C37.8956 23.2657 37.7952 23.5163 37.5947 23.7169C37.3941 23.9174 37.1435 24.0178 36.8426 24.0178C36.5417 24.0178 36.2909 23.9174 36.0905 23.7169C35.8898 23.5163 35.7896 23.2657 35.7896 22.9648C35.7896 22.6639 35.8898 22.4132 36.0905 22.2127C36.2909 22.012 36.5417 21.9118 36.8426 21.9118ZM30.8702 29.1823C31.4087 29.1823 31.8618 29.3643 32.2296 29.7284C32.5972 30.0927 32.7811 30.5439 32.7811 31.0821C32.7811 31.6206 32.5991 32.0737 32.2351 32.4415C31.8707 32.8093 31.4194 32.993 30.8812 32.993C30.3427 32.993 29.8896 32.811 29.5218 32.447C29.1542 32.0827 28.9704 31.6315 28.9704 31.0931C28.9704 30.5546 29.1524 30.1016 29.5164 29.7339C29.8806 29.3661 30.332 29.1823 30.8702 29.1823ZM36.8426 14.0897C37.1435 14.0897 37.3941 14.19 37.5947 14.3906C37.7952 14.5912 37.8956 14.8418 37.8956 15.1427C37.8956 15.4436 37.7952 15.6943 37.5947 15.8948C37.3941 16.0954 37.1435 16.1957 36.8426 16.1957C36.5417 16.1957 36.2909 16.0954 36.0905 15.8948C35.8898 15.6943 35.7896 15.4436 35.7896 15.1427C35.7896 14.8418 35.8898 14.5912 36.0905 14.3906C36.2909 14.19 36.5417 14.0897 36.8426 14.0897ZM22.7529 3.03056e-05C23.0536 3.03056e-05 23.3044 0.100314 23.505 0.300881C23.7055 0.501446 23.8057 0.752153 23.8057 1.053C23.8057 1.35385 23.7055 1.60456 23.505 1.80512C23.3044 2.00568 23.0536 2.10597 22.7529 2.10597C22.452 2.10597 22.2013 2.00568 22.0008 1.80512C21.8001 1.60456 21.6999 1.35385 21.6999 1.053C21.6999 0.752153 21.8001 0.501446 22.0008 0.300881C22.2013 0.100314 22.452 3.03056e-05 22.7529 3.03056e-05ZM22.7529 36.0015C23.0536 36.0015 23.3044 36.1019 23.505 36.3024C23.7055 36.503 23.8057 36.7536 23.8057 37.0545C23.8057 37.3554 23.7055 37.606 23.505 37.8066C23.3044 38.0072 23.0536 38.1075 22.7529 38.1075C22.452 38.1075 22.2013 38.0072 22.0008 37.8066C21.8001 37.606 21.6999 37.3554 21.6999 37.0545C21.6999 36.7536 21.8001 36.503 22.0008 36.3024C22.2013 36.1019 22.452 36.0015 22.7529 36.0015ZM22.7473 29.1823C23.2859 29.1823 23.7389 29.3643 24.1066 29.7284C24.4744 30.0927 24.6583 30.5439 24.6583 31.0821C24.6583 31.6206 24.4761 32.0737 24.1121 32.4415C23.7478 32.8093 23.2966 32.993 22.7584 32.993C22.2199 32.993 21.7668 32.811 21.399 32.447C21.0313 32.0827 20.8475 31.6315 20.8475 31.0931C20.8475 30.5546 21.0295 30.1016 21.3935 29.7339C21.7578 29.3661 22.2091 29.1823 22.7473 29.1823ZM22.7529 12.4351C23.505 12.4351 24.1442 12.6983 24.6707 13.2248C25.1972 13.7513 25.4605 14.3906 25.4605 15.1427C25.4605 15.8948 25.1972 16.5341 24.6707 17.0606C24.1442 17.5871 23.505 17.8503 22.7529 17.8503C22.0008 17.8503 21.3615 17.5871 20.835 17.0606C20.3085 16.5341 20.0451 15.8948 20.0451 15.1427C20.0451 14.3906 20.3085 13.7513 20.835 13.2248C21.3615 12.6983 22.0008 12.4351 22.7529 12.4351ZM22.7529 20.2572C23.505 20.2572 24.1442 20.5204 24.6707 21.0469C25.1972 21.5734 25.4605 22.2127 25.4605 22.9648C25.4605 23.7169 25.1972 24.3562 24.6707 24.8827C24.1442 25.4092 23.505 25.6724 22.7529 25.6724C22.0008 25.6724 21.3615 25.4092 20.835 24.8827C20.3085 24.3562 20.0451 23.7169 20.0451 22.9648C20.0451 22.2127 20.3085 21.5734 20.835 21.0469C21.3615 20.5204 22.0008 20.2572 22.7529 20.2572ZM22.7473 5.11445C23.2859 5.11445 23.7389 5.29646 24.1066 5.66049C24.4744 6.02481 24.6583 6.47608 24.6583 7.01431C24.6583 7.55283 24.4761 8.00591 24.1121 8.37363C23.7478 8.74137 23.2966 8.92519 22.7584 8.92519C22.2199 8.92519 21.7668 8.74318 21.399 8.37915C21.0313 8.01482 20.8475 7.56356 20.8475 7.02533C20.8475 6.48681 21.0295 6.03373 21.3935 5.66601C21.7578 5.29827 22.2091 5.11445 22.7473 5.11445Z" fill="var(--fill-0, #84DDDB)"/>
</g>
</svg>
