<svg preserveAspectRatio="none" width="100%" height="100%" overflow="visible" style="display: block;" viewBox="0 0 103.189 18.0805" fill="none" xmlns="http://www.w3.org/2000/svg">
<g id="Logo / Clickmax">
<g id="C">
<path d="M9.29203 13.3894L12.0609 14.1202C11.2631 16.0061 9.66746 18.0805 6.26508 18.0805C1.40788 18.0805 0 14.1909 0 11.5272C0 8.86339 1.40788 4.99739 6.26508 4.99739C9.80825 4.99739 11.3569 7.02468 12.0843 9.09912L9.26856 9.75917C8.75234 8.34478 8.09533 7.35471 6.26508 7.35471C4.0594 7.35471 2.93309 9.16984 2.93309 11.5272C2.93309 13.908 4.01247 15.6996 6.26508 15.6996C7.95454 15.6996 8.7758 14.6152 9.29203 13.3894Z" fill="var(--fill-0, white)"/>
</g>
<g id="lickma">
<path d="M13.6186 17.9863V0H16.5986V17.9863H13.6186Z" fill="var(--fill-0, white)"/>
<path d="M18.5 2.73449C18.5 2.2866 18.8285 1.29652 20.1894 1.29652C21.5269 1.29652 21.8789 2.23945 21.8789 2.73449C21.8789 3.22952 21.5269 4.17245 20.1894 4.17245C18.805 4.17245 18.5 3.18238 18.5 2.73449ZM18.7112 17.9627V5.61041H21.6912V17.9627H18.7112Z" fill="var(--fill-0, white)"/>
<path d="M32.9004 13.3314L35.6692 14.0622C34.8714 15.948 33.2758 18.0225 29.8734 18.0225C25.0162 18.0225 23.6083 14.1329 23.6083 11.4691C23.6083 8.80537 25.0162 4.93938 29.8734 4.93938C33.4166 4.93938 34.9653 6.96667 35.6927 9.0411L32.8769 9.70115C32.3607 8.28676 31.7037 7.29669 29.8734 7.29669C27.6677 7.29669 26.5414 9.11182 26.5414 11.4691C26.5414 13.85 27.6208 15.6416 29.8734 15.6416C31.5629 15.6416 32.3841 14.5572 32.9004 13.3314Z" fill="var(--fill-0, white)"/>
<path d="M37.8806 17.9863V1.20223H40.8606V10.8436L46.0463 5.79899L49.6833 5.77542L44.7557 10.6079L49.566 17.9863H45.9524L42.5266 12.8002L40.8606 14.4032V17.9863H37.8806Z" fill="var(--fill-0, white)"/>
<path d="M54.3083 5.75185V7.82629C55.4346 5.89329 56.7251 5.06823 58.485 5.06823C60.6437 5.06823 62.0986 6.0583 62.8729 7.68485C63.7411 6.22331 65.2428 5.16252 66.8619 5.13895C70.7805 5.0918 72.4465 7.2841 72.4465 11.4801V18.0099H69.4665V11.4801C69.4665 9.24068 68.7625 7.66127 66.5099 7.66127C64.0931 7.66127 63.5768 9.28782 63.5768 11.3623V18.0099H60.5968V11.3387C60.5968 9.02852 59.8929 7.47269 57.4525 7.47269C55.5519 7.47269 54.3083 9.38211 54.3083 11.3858V18.0099L51.3282 17.9863V5.75185H54.3083Z" fill="var(--fill-0, white)"/>
<path d="M84.4436 17.4655C83.5989 17.4655 83.0357 16.7111 83.0357 15.8625V15.6975C82.0032 17.3712 80.0322 18.1255 78.2958 18.0784C73.1336 18.102 72.5235 10.1578 79.8445 10.2285L83.0357 10.2521V9.3799C83.0357 7.72978 82.1206 6.92829 80.4311 6.92829C78.7886 6.92829 77.8969 7.65906 77.8969 9.07345H75.0812C75.0812 6.03251 77.5215 4.68884 80.525 4.68884C83.5519 4.68884 86.0157 6.05609 86.0157 9.28561V15.1553C86.0157 15.6504 86.3208 16.004 86.8135 16.004H86.9543V17.4655H84.4436ZM79.3048 15.6032C80.5954 15.5325 83.0357 14.5896 83.0357 12.7744V12.3265L79.9384 12.2794C76.4656 12.2558 76.6064 15.7682 79.3048 15.6032Z" fill="var(--fill-0, white)"/>
</g>
<g id="Frame 1707483344">
<g id="X">
<path d="M92.559 11.309L88.7024 5.24278H92.125L95.8389 11.309L93.875 14.3112L91.911 17.3134H88.4885L92.559 11.309Z" fill="white"/>
<path d="M99.1188 11.2471L102.975 17.3134L99.5529 17.3134L95.8389 11.2471L99.7668 5.24278H103.189L99.1188 11.2471Z" fill="white"/>
</g>
</g>
</g>
</svg>
